<?xml version="1.0" encoding="utf-8"?>
<!-- Generator: Adobe Illustrator 23.0.1, SVG Export Plug-In . SVG Version: 6.00 Build 0)  -->
<svg version="1.1" baseProfile="tiny" xmlns="http://www.w3.org/2000/svg" xmlns:xlink="http://www.w3.org/1999/xlink" x="0px"
	 y="0px" viewBox="0 0 54.88 20.89" xml:space="preserve">
<g id="Layer_2">
</g>
<g id="Layer_1">
</g>
<g id="Layer_3">
</g>
<g id="Layer_4">
</g>
<g id="Layer_5">
</g>
<g id="Layer_6">
	<g>
		<g>
			<path fill="#754C24" d="M25.91,5.58c-0.15,0.03-0.25,0.14-0.31,0.27c-0.13,0.26-0.25,0.52-0.37,0.79
				c-0.08,0.19-0.07,0.39-0.05,0.6c0.02,0.26,0.04,0.52-0.03,0.81c-0.18-0.18-0.23-0.39-0.27-0.6c-0.07-0.38-0.1-0.76-0.02-1.14
				c0.21-0.9,0.74-1.56,1.65-1.79c0.68-0.17,1.4-0.24,2.08,0.04c0.73,0.3,1.25,0.83,1.4,1.64c0.06,0.33,0.03,0.66,0,0.99
				c-0.01,0.17-0.03,0.33-0.06,0.5c-0.01,0.05-0.02,0.11-0.05,0.16c-0.05,0.1-0.12,0.22-0.23,0.19c-0.09-0.02-0.05-0.15-0.06-0.24
				c-0.01-0.09-0.01-0.19,0-0.29c0.01-0.11-0.03-0.18-0.14-0.23c-0.06,0.26-0.09,0.52-0.1,0.78c-0.01,0.18,0.07,0.31,0.25,0.35
				c0.33,0.07,0.31,0.32,0.13,0.53c-0.15,0.17-0.35,0.26-0.56,0.32C28.9,9.33,28.7,9.47,28.55,9.7c-0.17,0.26-0.45,0.33-0.73,0.36
				c-0.36,0.03-0.72,0.03-1.07-0.06c-0.23-0.06-0.41-0.17-0.53-0.38c-0.1-0.18-0.25-0.29-0.44-0.36c-0.22-0.08-0.44-0.15-0.63-0.28
				c-0.13-0.09-0.23-0.19-0.23-0.37c-0.01-0.14,0.05-0.22,0.18-0.27c0.26-0.09,0.29-0.14,0.3-0.43c0.01-0.35-0.04-0.71,0.03-1.06
				c0.01-0.05,0.01-0.11,0.04-0.14C25.69,6.4,25.7,6,25.89,5.68C25.91,5.66,25.94,5.62,25.91,5.58z"/>
			<path fill="#754C24" d="M19.16,5.93c0.01,0.01,0.03,0.02,0.03,0.02c0.41,0.79,1.07,1.39,1.64,2.06c0.5,0.59,1.05,1.14,1.61,1.67
				c0.39,0.37,0.85,0.67,1.28,1.02c0.75,0.61,1.52,1.19,2.36,1.67c0.75,0.43,1.55,0.78,2.36,1.09c0.76,0.29,1.55,0.47,2.33,0.7
				c0.12,0.04,0.25,0.04,0.38,0.06c0.04,0.01,0.1,0.02,0.1,0.07c0,0.04-0.05,0.05-0.08,0.07c-0.4,0.23-0.81,0.26-1.25,0.11
				c-0.98-0.33-1.92-0.73-2.86-1.17c-0.75-0.35-1.48-0.72-2.16-1.2c-0.15-0.11-0.3-0.22-0.44-0.34c-0.11-0.09-0.24-0.17-0.4-0.17
				c-0.01,0.07,0.05,0.09,0.08,0.12c0.75,0.71,1.62,1.23,2.55,1.66c1.09,0.51,2.21,0.95,3.33,1.38c0.1,0.04,0.2,0.06,0.3,0.09
				c0.05,0.02,0.1,0.03,0.14,0.05c0.11,0.06,0.22,0.15,0.19,0.27c-0.02,0.07-0.17,0.02-0.26,0.01c-2.23-0.38-4.23-1.31-6.12-2.52
				c-0.76-0.49-1.43-1.08-2.09-1.68c-1.23-1.13-2.23-2.45-2.88-4.01c-0.12-0.3-0.21-0.6-0.19-0.93C19.13,6.02,19.12,5.97,19.16,5.93
				z"/>
			<path fill="#754C24" d="M35.75,6.06c0.02,0.27-0.05,0.48-0.11,0.68c-0.17,0.62-0.53,1.16-0.81,1.73
				c-0.41,0.8-0.96,1.48-1.62,2.08c-0.49,0.44-0.95,0.91-1.48,1.3c-0.76,0.55-1.54,1.09-2.37,1.53c-0.13,0.07-0.26,0.09-0.4,0.02
				c-0.15-0.07-0.3-0.11-0.49-0.18c0.4-0.23,0.77-0.43,1.13-0.66c0.35-0.21,0.77-0.35,0.99-0.77c-0.18,0.01-0.31,0.08-0.44,0.16
				c-0.53,0.36-1.1,0.64-1.66,0.96c-0.37,0.21-0.44,0.2-0.83-0.07c0.18-0.09,0.33-0.17,0.5-0.24c1.18-0.48,2.19-1.24,3.2-1.99
				c0.51-0.38,1.02-0.77,1.5-1.19c0.53-0.46,0.95-1.01,1.41-1.54C34.76,7.31,35.27,6.73,35.75,6.06z"/>
			<path fill="#754C24" d="M27.48,12.12c-0.24,0.03-0.48,0.01-0.71-0.02c-0.25-0.04-0.42-0.17-0.55-0.37
				c-0.11-0.17-0.23-0.33-0.37-0.48c-0.1-0.11-0.15-0.25-0.16-0.4c-0.02-0.32-0.04-0.65-0.05-0.97c0-0.05-0.01-0.11,0.04-0.14
				c0.05-0.03,0.09,0.02,0.13,0.04c0.23,0.14,0.35,0.34,0.36,0.61c0.01,0.14,0,0.29,0.05,0.43c0.11,0.33,0.36,0.49,0.68,0.55
				c0.28,0.06,0.57,0.07,0.85,0.04c0.38-0.04,0.6-0.23,0.69-0.6c0.04-0.17,0.07-0.34,0.11-0.51c0.05-0.23,0.16-0.42,0.42-0.47
				c0.1-0.02,0.15-0.01,0.14,0.11c-0.05,0.36-0.08,0.74-0.17,1.09c-0.1,0.41-0.39,0.73-0.73,0.97c-0.11,0.08-0.24,0.11-0.38,0.11
				C27.71,12.12,27.59,12.12,27.48,12.12z"/>
			<path fill="#754C24" d="M33.05,13.5c-0.44,0.09-0.62,0.44-0.82,0.77c-0.15,0.24-0.29,0.48-0.51,0.67
				c-0.11,0.09-0.12,0.22-0.13,0.35c-0.1,0.76-0.72,1.28-1.49,1.24c-0.24-0.01-0.46-0.14-0.51-0.31c-0.05-0.16,0.04-0.28,0.21-0.26
				c0.07,0.01,0.14,0.03,0.21,0.06c0.34,0.12,0.59-0.03,0.81-0.26c0.22-0.23,0.23-0.47,0.08-0.77c-0.1-0.19-0.1-0.19,0.09-0.27
				c0.42-0.17,0.69-0.46,0.83-0.89c0.07-0.22,0.15-0.44,0.34-0.58c0.28-0.21,0.55-0.18,0.77,0.1C32.97,13.39,33,13.43,33.05,13.5z"
				/>
			<path fill="#754C24" d="M24.33,16.35c-0.46-0.01-1.28-0.47-1.33-1.19c-0.02-0.29-0.11-0.5-0.33-0.68
				c-0.17-0.13-0.26-0.32-0.34-0.51c-0.15-0.34-0.32-0.66-0.71-0.78c-0.07-0.02-0.05-0.06-0.03-0.11c0.07-0.18,0.32-0.33,0.52-0.32
				c0.2,0.01,0.34,0.12,0.41,0.34c0.02,0.05,0.03,0.1,0.04,0.15c0.08,0.59,0.46,0.95,0.97,1.2c0.15,0.07,0.19,0.13,0.14,0.3
				c-0.14,0.42-0.04,0.69,0.31,0.97c0.12,0.1,0.25,0.13,0.41,0.11c0.08-0.02,0.17-0.03,0.25-0.04c0.11-0.02,0.2-0.01,0.26,0.11
				c0.06,0.12,0.03,0.22-0.07,0.3C24.67,16.3,24.5,16.34,24.33,16.35z"/>
			<path fill="#754C24" d="M23.81,15.03c0.02-0.18,0.14-0.28,0.3-0.35c0.34-0.14,0.7-0.19,1.04-0.3c0.34-0.11,0.68-0.2,1.03-0.31
				c0.07-0.02,0.13-0.02,0.21,0.01c0.18,0.09,0.36,0.17,0.56,0.26C26.1,14.71,24.37,15.09,23.81,15.03z"/>
			<path fill="#754C24" d="M25.94,13.9c-0.39,0.12-0.74,0.23-1.09,0.33c-0.21,0.06-0.43,0.13-0.65,0.15
				c-0.31,0.03-0.57-0.09-0.81-0.27c-0.02-0.02-0.06-0.04-0.05-0.08C23.36,14,23.4,14.01,23.43,14c0.63-0.14,1.28-0.24,1.9-0.42
				c0.04-0.01,0.07-0.02,0.11,0.01C25.6,13.69,25.75,13.78,25.94,13.9z"/>
			<path fill="#754C24" d="M21.35,14.32c0.19,0.01,0.38-0.05,0.57-0.01c0.27,0.06,0.52,0.15,0.62,0.44
				c0.07,0.19,0.03,0.23-0.16,0.23c-0.3,0-0.59,0.01-0.89,0.04c-0.23,0.02-0.38-0.06-0.47-0.28c-0.15-0.4-0.3-0.42,0.28-0.41
				C21.32,14.32,21.33,14.32,21.35,14.32z"/>
			<path fill="#754C24" d="M32.74,15.32c-0.21-0.03-0.43,0-0.64-0.04c-0.13-0.02-0.18-0.06-0.11-0.2c0.13-0.26,0.3-0.42,0.61-0.41
				c0.24,0.01,0.48-0.03,0.72-0.03c0.33,0,0.4,0.12,0.25,0.4c-0.13,0.25-0.21,0.29-0.5,0.27C32.96,15.32,32.85,15.32,32.74,15.32z"
				/>
			<path fill="#754C24" d="M20.83,14.19c-0.16,0.1-0.16,0.23-0.1,0.37c0.04,0.11,0.09,0.22,0.08,0.34c-0.01,0.18-0.13,0.3-0.31,0.31
				c-0.24,0.01-0.44-0.1-0.54-0.3c-0.1-0.22-0.08-0.5,0.07-0.66C20.19,14.08,20.53,14.05,20.83,14.19z"/>
			<path fill="#754C24" d="M33.72,14.53c0.14-0.06,0.29-0.07,0.44-0.04c0.3,0.05,0.5,0.33,0.45,0.63c-0.05,0.32-0.31,0.52-0.62,0.48
				c-0.2-0.03-0.31-0.19-0.27-0.39c0.02-0.12,0.07-0.24,0.14-0.34c0.08-0.12,0.06-0.2-0.07-0.25
				C33.76,14.59,33.72,14.58,33.72,14.53z"/>
			<path fill="#754C24" d="M33.84,15.8c-0.02,0.08-0.07,0.11-0.15,0.09c-0.14-0.04-0.23-0.14-0.29-0.27
				c-0.01-0.03-0.01-0.07,0.02-0.09c0.03-0.02,0.06-0.02,0.09,0.01c0.08,0.09,0.17,0.15,0.28,0.2
				C33.82,15.75,33.84,15.76,33.84,15.8z"/>
			<path fill="#754C24" d="M20.64,15.55c0.14-0.2,0.27-0.34,0.49-0.41C21.09,15.37,20.97,15.47,20.64,15.55z"/>
			<path fill="#754C24" d="M27.45,10.33c0,0.1,0,0.19-0.12,0.2c-0.12,0.01-0.13-0.09-0.12-0.18c0-0.09,0-0.19,0.13-0.19
				C27.48,10.16,27.43,10.27,27.45,10.33z"/>
			<path fill="#754C24" d="M26.8,10.3c0,0.1-0.01,0.18-0.11,0.17c-0.1-0.01-0.14-0.11-0.14-0.2c0-0.09,0.03-0.15,0.13-0.15
				C26.84,10.13,26.76,10.26,26.8,10.3z"/>
			<path fill="#754C24" d="M27.78,10.38c0,0.09,0,0.16-0.11,0.16c-0.07,0-0.14-0.01-0.1-0.1c0.03-0.09-0.05-0.24,0.09-0.26
				C27.78,10.16,27.77,10.29,27.78,10.38z"/>
			<path fill="#754C24" d="M26.92,10.34c0.02-0.04-0.03-0.18,0.1-0.17c0.12,0.01,0.11,0.13,0.12,0.23c0.01,0.1-0.06,0.1-0.13,0.1
				C26.9,10.51,26.9,10.45,26.92,10.34z"/>
			<path fill="#754C24" d="M27.34,11.29c-0.09-0.01-0.13-0.06-0.13-0.13c0-0.08,0.03-0.16,0.13-0.16c0.08,0,0.14,0.03,0.13,0.12
				C27.46,11.2,27.44,11.28,27.34,11.29z"/>
			<path fill="#754C24" d="M27.91,10.3c0.03-0.05-0.02-0.16,0.09-0.16c0.07,0,0.12,0.05,0.1,0.12c-0.02,0.08,0.02,0.23-0.09,0.24
				C27.91,10.5,27.94,10.37,27.91,10.3z"/>
			<path fill="#754C24" d="M27.1,11.08c-0.01,0.06-0.01,0.16-0.1,0.16c-0.12,0-0.1-0.13-0.12-0.21c-0.02-0.09,0.04-0.09,0.1-0.09
				C27.07,10.94,27.11,10.99,27.1,11.08z"/>
			<path fill="#754C24" d="M27.84,10.97c0.07,0.01,0.11,0.05,0.1,0.13c-0.01,0.08-0.06,0.16-0.12,0.16
				c-0.09-0.01-0.08-0.11-0.09-0.19C27.73,11.02,27.75,10.97,27.84,10.97z"/>
			<path fill="#754C24" d="M26.63,10.94c0.1,0.01,0.14,0.09,0.16,0.17c0.02,0.05-0.01,0.07-0.06,0.07c-0.1,0-0.14-0.05-0.14-0.14
				C26.59,11,26.56,10.95,26.63,10.94z"/>
			<path fill="#754C24" d="M27.71,7.58c0-0.02,0-0.05,0.01-0.08c0.1-0.3,0.34-0.44,0.62-0.5c0.24-0.05,0.43,0.06,0.57,0.25
				c0.18,0.24,0.21,0.53,0.2,0.82c0,0.28-0.41,0.52-0.68,0.45C28.09,8.43,27.71,7.94,27.71,7.58z"/>
			<path fill="#754C24" d="M26.43,6.97c0.24,0.02,0.47,0.09,0.6,0.33c0.13,0.24,0.08,0.47-0.06,0.68c-0.17,0.26-0.42,0.43-0.73,0.5
				c-0.28,0.06-0.49-0.09-0.52-0.37c-0.02-0.2-0.01-0.39,0.04-0.58C25.84,7.22,26.13,6.97,26.43,6.97z"/>
			<path fill="#754C24" d="M26.97,9.09c0.03-0.31,0.11-0.6,0.27-0.87c0.04-0.07,0.09-0.14,0.18-0.11c0.08,0.02,0.1,0.09,0.12,0.16
				c0.06,0.27,0.15,0.53,0.19,0.8c0.01,0.11,0.01,0.17-0.13,0.13c-0.15-0.04-0.32-0.07-0.47,0.01C26.99,9.29,26.95,9.23,26.97,9.09z
				"/>
		</g>
	</g>
</g>
</svg>
